<svg width="59" height="59" viewBox="0 0 59 59" fill="none" xmlns="http://www.w3.org/2000/svg">
<g clip-path="url(#clip0_622_908)">
<path fill-rule="evenodd" clip-rule="evenodd" d="M48.8552 22.8284L52.4088 20.3541L47.1145 19.2922C41.3109 9.65421 29.4129 5.78527 19.7802 10.6793C9.67255 15.8147 5.8868 28.6541 11.3245 39.3568C16.7622 50.0595 29.3643 54.5726 39.472 49.4372C48.9358 44.6289 52.8574 33.0669 48.8552 22.8284Z" fill="#E8E8E8"/>
<path d="M52.4088 20.3541L52.5563 19.6187C52.851 19.6778 53.0819 19.9071 53.1431 20.2013C53.2043 20.4955 53.084 20.7978 52.8374 20.9696L52.4088 20.3541ZM48.8552 22.8284L48.1567 23.1015C48.0304 22.7785 48.1421 22.4111 48.4267 22.2129L48.8552 22.8284ZM47.1145 19.2922L46.967 20.0275C46.7604 19.9861 46.5807 19.8596 46.472 19.6791L47.1145 19.2922ZM19.7802 10.6793L19.4405 10.0107L19.7802 10.6793ZM11.3245 39.3568L11.9932 39.017L11.3245 39.3568ZM39.472 49.4372L39.8117 50.1059L39.472 49.4372ZM52.8374 20.9696L49.2838 23.4439L48.4267 22.2129L51.9803 19.7386L52.8374 20.9696ZM47.262 18.5568L52.5563 19.6187L52.2614 21.0894L46.967 20.0275L47.262 18.5568ZM46.472 19.6791C40.8508 10.344 29.3676 6.64953 20.1199 11.348L19.4405 10.0107C29.4582 4.92101 41.771 8.96445 47.757 18.9053L46.472 19.6791ZM20.1199 11.348C10.4171 16.2777 6.7245 28.6471 11.9932 39.017L10.6559 39.6965C5.0491 28.661 8.92802 15.3518 19.4405 10.0107L20.1199 11.348ZM11.9932 39.017C17.2618 49.387 29.4294 53.6983 39.1322 48.7686L39.8117 50.1059C29.2992 55.447 16.2626 50.7319 10.6559 39.6965L11.9932 39.017ZM39.1322 48.7686C48.2181 44.1524 52.0327 33.0171 48.1567 23.1015L49.5537 22.5554C53.6822 33.1167 49.6535 45.1055 39.8117 50.1059L39.1322 48.7686Z" fill="#939393"/>
<path fill-rule="evenodd" clip-rule="evenodd" d="M23.3223 41.6501L23.0057 42.5686L24.8427 43.2017L25.1592 42.2832C26.5805 38.1596 29.9369 36.194 33.7505 35.4319C37.5875 34.6652 41.7467 35.1591 44.392 35.8578L45.3313 36.1058L45.8274 34.2272L44.8881 33.9791C42.0431 33.2277 37.574 32.6864 33.3697 33.5266C29.1402 34.3718 25.0434 36.6562 23.3223 41.6501Z" fill="#939393"/>
<path d="M36.1636 18.7428C36.5249 18.687 36.901 18.6464 37.292 18.621C37.6945 18.5981 38.0933 18.5924 38.4885 18.6041C38.8906 18.6112 39.2856 18.6378 39.6734 18.6841C40.0681 18.7258 40.4385 18.7833 40.7843 18.8568L40.7557 20.0978C39.964 19.9959 39.2011 19.9995 38.467 20.1087L38.226 21.7112L35.8013 21.2142L36.1636 18.7428Z" fill="#939393"/>
<path d="M29.5816 18.5802C29.9369 18.4944 30.3083 18.4225 30.6958 18.3645C31.095 18.308 31.4919 18.269 31.8867 18.2476C32.288 18.2211 32.6838 18.2146 33.0741 18.2283C33.471 18.2368 33.8449 18.2633 34.1957 18.3076L34.2708 19.5466C33.4734 19.5112 32.7135 19.5786 31.9911 19.7487L31.8849 21.3658L29.4271 21.0732L29.5816 18.5802Z" fill="#939393"/>
</g>
<defs>
<clipPath id="clip0_622_908">
<rect width="58.7654" height="58.7654" fill="white"/>
</clipPath>
</defs>
</svg>
