<svg xmlns="http://www.w3.org/2000/svg" width="288" height="386" viewBox="0 0 288 386" fill="none">
  <path d="M47.2284 1C45.0193 1 43.2479 2.79651 43.0456 4.99637C41.1737 25.3572 25.1422 41.5676 4.99608 43.4781C2.79681 43.6867 1.00022 45.4575 1.00022 47.6667L1 338.333C1 340.542 2.79659 342.313 4.99586 342.522C25.142 344.432 41.1735 360.643 43.0454 381.004C43.2476 383.204 45.0191 385 47.2282 385H240.772C242.981 385 244.752 383.204 244.955 381.004C246.827 360.643 262.858 344.432 283.004 342.522C285.203 342.313 287 340.542 287 338.333V47.6667C287 45.4575 285.203 43.6867 283.004 43.4781C262.858 41.5676 246.827 25.3572 244.955 4.99637C244.752 2.79651 242.981 1 240.772 1H47.2284Z" stroke="#2D56CA" stroke-width="1.52" stroke-linecap="round"/>
</svg>