<svg width="20" height="20" viewBox="0 0 20 20" fill="none" xmlns="http://www.w3.org/2000/svg">
<path id="Union" fill-rule="evenodd" clip-rule="evenodd" d="M1.94343 0.530198C1.55291 0.139674 0.919746 0.139674 0.529221 0.530198C0.138697 0.920722 0.138697 1.55389 0.529221 1.94441L8.58549 10.0007L0.530432 18.0557C0.139908 18.4463 0.139908 19.0794 0.530432 19.4699C0.920956 19.8605 1.55412 19.8605 1.94465 19.4699L9.9997 11.4149L18.0548 19.4699C18.4453 19.8605 19.0784 19.8605 19.469 19.4699C19.8595 19.0794 19.8595 18.4463 19.469 18.0557L11.4139 10.0007L19.4702 1.94441C19.8607 1.55389 19.8607 0.920722 19.4702 0.530198C19.0797 0.139674 18.4465 0.139674 18.056 0.530198L9.9997 8.58646L1.94343 0.530198Z" fill="#27272C"/>
</svg>
