<svg width="48" height="46" viewBox="0 0 48 46" fill="none" xmlns="http://www.w3.org/2000/svg">
<g filter="url(#filter0_d_127_3228)">
<path d="M5.6479 27.7052C5.05298 24.26 5.54573 20.6857 7.04386 17.579C8.542 14.4722 10.955 12.0208 13.88 10.6338C16.8051 9.24693 20.0654 9.00834 23.1168 9.95794C26.1682 10.9075 28.8262 12.9879 30.6472 15.8518M30.6472 15.8518L22.4921 16.2681M30.6472 15.8518L30.4835 7.11235" stroke="#F9F4E3" stroke-width="2.50909" stroke-linecap="round" stroke-linejoin="round"/>
<path d="M19.3068 27.0514C19.274 27.4659 19.2359 27.875 19.1922 28.2786C19.1595 28.6823 19.1268 29.0641 19.094 29.4241C19.0613 29.7841 19.034 30.1059 19.0122 30.3896C19.0013 30.6732 18.9959 30.8914 18.9959 31.0441C18.9959 31.3277 19.0286 31.5186 19.094 31.6168C19.1595 31.7041 19.2686 31.7477 19.4213 31.7477C19.5413 31.7477 19.6449 31.7259 19.7322 31.6823C19.8195 31.6386 19.9013 31.5896 19.9777 31.535C20.054 31.4805 20.1195 31.4314 20.174 31.3877C20.2395 31.3441 20.3104 31.3223 20.3868 31.3223C20.4631 31.3223 20.534 31.3659 20.5995 31.4532C20.6649 31.5405 20.6977 31.7423 20.6977 32.0586C20.6977 32.6586 20.534 33.1332 20.2068 33.4823C19.8795 33.8314 19.3177 34.0059 18.5213 34.0059C17.7359 34.0059 17.1522 33.8259 16.7704 33.4659C16.3995 33.095 16.214 32.5332 16.214 31.7805C16.214 31.6168 16.2195 31.4259 16.2304 31.2077C16.2522 30.9786 16.2795 30.6841 16.3122 30.3241C16.3449 29.9641 16.3831 29.5223 16.4268 28.9986C16.4813 28.475 16.5359 27.8259 16.5904 27.0514H15.7231C15.6359 27.0514 15.5813 27.035 15.5595 27.0023C15.5486 26.9586 15.5431 26.8986 15.5431 26.8223L15.5922 25.9877C15.6031 25.8459 15.6195 25.7096 15.6413 25.5786C15.674 25.4368 15.7286 25.3114 15.8049 25.2023C15.8922 25.0932 16.0122 25.0059 16.1649 24.9405C16.3177 24.875 16.5195 24.8423 16.7704 24.8423C16.8468 24.6459 16.934 24.4114 17.0322 24.1386C17.1304 23.8659 17.2286 23.6041 17.3268 23.3532C17.4249 23.0914 17.5177 22.8732 17.6049 22.6986C17.7031 22.5241 17.7904 22.4368 17.8668 22.4368H18.3413C18.7995 22.4368 19.1159 22.5786 19.2904 22.8623C19.4649 23.1459 19.5522 23.4841 19.5522 23.8768C19.5522 24.095 19.5359 24.4168 19.5031 24.8423H21.2213C21.3959 24.8423 21.4831 24.9186 21.4831 25.0714L21.4177 25.955C21.3959 26.2823 21.3031 26.5496 21.1395 26.7568C20.9868 26.9532 20.6649 27.0514 20.174 27.0514H19.3068ZM23.6826 33.8423C23.3445 33.8423 23.0663 33.8096 22.8481 33.7441C22.6408 33.6677 22.4717 33.5641 22.3408 33.4332C22.2208 33.3023 22.1335 33.1441 22.079 32.9586C22.0354 32.7623 22.0135 32.5386 22.0135 32.2877C22.0135 32.1241 22.019 31.895 22.0299 31.6005C22.0517 31.295 22.0845 30.8805 22.1281 30.3568C22.1717 29.8223 22.2208 29.1514 22.2754 28.3441C22.3408 27.5259 22.4172 26.5168 22.5045 25.3168C22.5154 25.0768 22.5426 24.935 22.5863 24.8914C22.619 24.8586 22.7063 24.8423 22.8481 24.8423H23.4863C23.8245 24.8423 24.0972 24.875 24.3045 24.9405C24.5226 25.0059 24.6917 25.1041 24.8117 25.235C24.9426 25.3659 25.0299 25.5241 25.0735 25.7096C25.1281 25.895 25.1554 26.1023 25.1554 26.3314C25.1554 26.495 25.1445 26.7405 25.1226 27.0677C25.1008 27.395 25.0681 27.8423 25.0245 28.4096C24.9917 28.9659 24.9426 29.6641 24.8772 30.5041C24.8117 31.3332 24.7299 32.3368 24.6317 33.515C24.6208 33.6459 24.5935 33.7332 24.5499 33.7768C24.5063 33.8205 24.4135 33.8423 24.2717 33.8423H23.6826ZM22.5208 22.9114C22.5208 22.475 22.679 22.1314 22.9954 21.8805C23.3117 21.6296 23.7372 21.5041 24.2717 21.5041C24.7408 21.5041 25.079 21.6023 25.2863 21.7986C25.5045 21.9841 25.6135 22.235 25.6135 22.5514C25.6135 22.955 25.4608 23.2932 25.1554 23.5659C24.8608 23.8277 24.4245 23.9586 23.8463 23.9586C22.9626 23.9586 22.5208 23.6096 22.5208 22.9114ZM31.934 24.6786C32.9595 24.6786 33.7285 24.995 34.2413 25.6277C34.7649 26.2605 35.0267 27.2586 35.0267 28.6223C35.0267 29.4732 34.9285 30.2314 34.7322 30.8968C34.5358 31.5623 34.2631 32.1296 33.914 32.5986C33.5649 33.0568 33.1558 33.4059 32.6867 33.6459C32.2176 33.8859 31.7104 34.0059 31.1649 34.0059C30.5867 34.0059 30.134 33.8805 29.8067 33.6296C29.4795 33.3786 29.2231 33.0241 29.0376 32.5659C29.0049 32.9586 28.9776 33.2586 28.9558 33.4659C28.934 33.6732 28.9176 33.8368 28.9067 33.9568C28.8958 34.0877 28.8849 34.2023 28.874 34.3005C28.874 34.3986 28.8631 34.5296 28.8413 34.6932C28.8304 34.8568 28.814 35.0805 28.7922 35.3641C28.7704 35.6477 28.7376 36.0405 28.694 36.5423C28.6831 36.6732 28.6558 36.7605 28.6122 36.8041C28.5685 36.8477 28.4758 36.8696 28.334 36.8696H27.7449C27.4067 36.8696 27.1285 36.8314 26.9104 36.755C26.7031 36.6896 26.534 36.5914 26.4031 36.4605C26.2831 36.3296 26.1958 36.1659 26.1413 35.9696C26.0976 35.7841 26.0758 35.5659 26.0758 35.315C26.0758 35.2059 26.0922 34.9114 26.1249 34.4314C26.1576 33.9514 26.1958 33.3786 26.2395 32.7132C26.294 32.0368 26.3485 31.3114 26.4031 30.5368C26.4685 29.7623 26.5285 29.0259 26.5831 28.3277C26.6376 27.6186 26.6813 26.9914 26.714 26.4459C26.7576 25.9005 26.7904 25.5241 26.8122 25.3168C26.8231 25.0768 26.8504 24.935 26.894 24.8914C26.9267 24.8586 27.014 24.8423 27.1558 24.8423H27.794C28.3831 24.8423 28.8085 24.9677 29.0704 25.2186C29.3431 25.4586 29.4795 25.7477 29.4795 26.0859C29.7304 25.5841 30.0522 25.2241 30.4449 25.0059C30.8485 24.7877 31.3449 24.6786 31.934 24.6786ZM30.7395 26.855C30.1831 26.855 29.774 27.095 29.5122 27.575C29.2504 28.055 29.1195 28.7096 29.1195 29.5386C29.1195 29.8223 29.1358 30.1005 29.1685 30.3732C29.2122 30.6459 29.2831 30.8914 29.3813 31.1096C29.4795 31.3277 29.6104 31.5023 29.774 31.6332C29.9485 31.7641 30.1667 31.8296 30.4285 31.8296C30.8976 31.8296 31.2904 31.6005 31.6067 31.1423C31.9231 30.6841 32.0813 29.9641 32.0813 28.9823C32.0813 28.7096 32.0595 28.4477 32.0158 28.1968C31.9831 27.935 31.9176 27.7059 31.8195 27.5096C31.7213 27.3132 31.5849 27.155 31.4104 27.035C31.2358 26.915 31.0122 26.855 30.7395 26.855ZM37.3717 30.9296C37.8299 30.9296 38.1572 31.0441 38.3535 31.2732C38.5499 31.4914 38.6481 31.8023 38.6481 32.2059C38.6481 32.3805 38.6263 32.5714 38.5826 32.7786C38.539 32.9859 38.4572 33.1823 38.3372 33.3677C38.2281 33.5423 38.0644 33.695 37.8463 33.8259C37.639 33.9459 37.3663 34.0059 37.0281 34.0059C36.5372 34.0059 36.2044 33.8805 36.0299 33.6296C35.8553 33.3677 35.7681 33.0459 35.7681 32.6641C35.7681 32.4459 35.7953 32.2332 35.8499 32.0259C35.9044 31.8186 35.9917 31.6332 36.1117 31.4696C36.2317 31.3059 36.3953 31.175 36.6026 31.0768C36.8099 30.9786 37.0663 30.9296 37.3717 30.9296ZM37.7317 29.7841C37.459 29.7841 37.2353 29.7514 37.0608 29.6859C36.8863 29.6205 36.7499 29.5223 36.6517 29.3914C36.5535 29.2496 36.4826 29.0805 36.439 28.8841C36.4063 28.6768 36.3899 28.4423 36.3899 28.1805C36.3899 28.0823 36.3899 27.9786 36.3899 27.8696C36.4008 27.7496 36.4117 27.6023 36.4226 27.4277C36.4444 27.2532 36.4608 27.035 36.4717 26.7732C36.4935 26.5114 36.5208 26.1786 36.5535 25.775C36.5863 25.3605 36.6244 24.8641 36.6681 24.2859C36.7117 23.7077 36.7608 23.015 36.8153 22.2077C36.8263 21.9677 36.8535 21.8259 36.8972 21.7823C36.9299 21.7496 37.0172 21.7332 37.159 21.7332H38.1244C38.7244 21.7332 39.1499 21.8532 39.4008 22.0932C39.6626 22.3223 39.7935 22.595 39.7935 22.9114C39.7935 23.1077 39.7717 23.3696 39.7281 23.6968C39.6953 24.0132 39.6463 24.3677 39.5808 24.7605C39.5153 25.1532 39.439 25.5677 39.3517 26.0041C39.2753 26.4296 39.1935 26.855 39.1063 27.2805C39.0299 27.695 38.9535 28.0932 38.8772 28.475C38.8008 28.8568 38.7353 29.1841 38.6808 29.4568C38.659 29.5877 38.6208 29.675 38.5663 29.7186C38.5226 29.7623 38.4408 29.7841 38.3208 29.7841H37.7317Z" fill="#F9F4E3"/>
</g>
<defs>
<filter id="filter0_d_127_3228" x="-3" y="-3" width="51.9995" height="52" filterUnits="userSpaceOnUse" color-interpolation-filters="sRGB">
<feFlood flood-opacity="0" result="BackgroundImageFix"/>
<feColorMatrix in="SourceAlpha" type="matrix" values="0 0 0 0 0 0 0 0 0 0 0 0 0 0 0 0 0 0 127 0" result="hardAlpha"/>
<feOffset dx="2" dy="3"/>
<feGaussianBlur stdDeviation="3"/>
<feComposite in2="hardAlpha" operator="out"/>
<feColorMatrix type="matrix" values="0 0 0 0 0 0 0 0 0 0 0 0 0 0 0 0 0 0 0.25 0"/>
<feBlend mode="normal" in2="BackgroundImageFix" result="effect1_dropShadow_127_3228"/>
<feBlend mode="normal" in="SourceGraphic" in2="effect1_dropShadow_127_3228" result="shape"/>
</filter>
</defs>
</svg>
