<svg width="60" height="59" viewBox="0 0 60 59" fill="none" xmlns="http://www.w3.org/2000/svg">
<g clip-path="url(#clip0_622_904)">
<path fill-rule="evenodd" clip-rule="evenodd" d="M49.1146 22.8285L52.6682 20.3542L47.3739 19.2923C41.5703 9.6543 29.6722 5.78537 20.0396 10.6794C9.9319 15.8148 6.14615 28.6541 11.5839 39.3569C17.0216 50.0596 29.6236 54.5727 39.7313 49.4373C49.1952 44.629 53.1168 33.067 49.1146 22.8285Z" fill="#E8E8E8"/>
<path d="M52.6682 20.3542L52.8157 19.6188C53.1103 19.6779 53.3412 19.9072 53.4025 20.2014C53.4637 20.4956 53.3434 20.7979 53.0968 20.9697L52.6682 20.3542ZM49.1146 22.8285L48.416 23.1016C48.2898 22.7786 48.4014 22.4112 48.686 22.213L49.1146 22.8285ZM47.3739 19.2923L47.2264 20.0276C47.0197 19.9862 46.8401 19.8597 46.7313 19.6792L47.3739 19.2923ZM20.0396 10.6794L19.6999 10.0108L20.0396 10.6794ZM39.7313 49.4373L40.071 50.106L39.7313 49.4373ZM53.0968 20.9697L49.5431 23.444L48.686 22.213L52.2396 19.7387L53.0968 20.9697ZM47.5213 18.5569L52.8157 19.6188L52.5207 21.0895L47.2264 20.0276L47.5213 18.5569ZM46.7313 19.6792C41.1101 10.3441 29.6269 6.64963 20.3793 11.3481L19.6999 10.0108C29.7175 4.92111 42.0304 8.96454 48.0164 18.9054L46.7313 19.6792ZM20.3793 11.3481C10.6764 16.2778 6.98385 28.6472 12.2525 39.0171L10.9152 39.6966C5.30845 28.6611 9.18737 15.3518 19.6999 10.0108L20.3793 11.3481ZM12.2525 39.0171C17.5212 49.3871 29.6887 53.6984 39.3916 48.7687L40.071 50.106C29.5585 55.4471 16.522 50.732 10.9152 39.6966L12.2525 39.0171ZM39.3916 48.7687C48.4774 44.1524 52.2921 33.0172 48.416 23.1016L49.8131 22.5555C53.9415 33.1168 49.9129 45.1056 40.071 50.106L39.3916 48.7687Z" fill="#939393"/>
<path fill-rule="evenodd" clip-rule="evenodd" d="M25.742 28.3224L25.4254 27.4039L27.2624 26.7708L27.579 27.6892C29.0002 31.8129 32.3567 33.7784 36.1702 34.5405C40.0073 35.3073 44.1664 34.8134 46.8117 34.1147L47.751 33.8666L48.2472 35.7452L47.3079 35.9933C44.4629 36.7447 39.9938 37.286 35.7895 36.4459C31.5599 35.6007 27.4632 33.3162 25.742 28.3224Z" fill="#939393"/>
<path d="M36.4499 20.6685C36.6164 20.343 36.8038 20.0144 37.0123 19.6826C37.2295 19.343 37.4585 19.0165 37.6994 18.7031C37.9408 18.3813 38.1938 18.0768 38.4584 17.7896C38.7235 17.4941 38.9871 17.2277 39.2493 16.9904L40.2382 17.7407C39.6919 18.3226 39.2479 18.943 38.9063 19.6018L40.0639 20.736L38.2406 22.4099L36.4499 20.6685Z" fill="#939393"/>
<path d="M29.9397 20.344C30.1061 20.0185 30.2935 19.6899 30.502 19.3582C30.7192 19.0185 30.9483 18.692 31.1892 18.3786C31.4305 18.0568 31.6835 17.7524 31.9482 17.4652C32.2132 17.1696 32.4768 16.9032 32.739 16.666L33.728 17.4162C33.1816 17.9981 32.7376 18.6185 32.396 19.2774L33.5536 20.4115L31.7304 22.0854L29.9397 20.344Z" fill="#939393"/>
</g>
<defs>
<clipPath id="clip0_622_904">
<rect width="58.7654" height="58.7654" fill="white" transform="translate(0.259277)"/>
</clipPath>
</defs>
</svg>
