<svg width="24" height="24" viewBox="0 0 24 24" fill="none" xmlns="http://www.w3.org/2000/svg">
<path d="M13.885 4.02328L19.3297 8.4222C20.0346 8.99176 20.4443 9.84947 20.4443 10.7558L20.4443 20.5C20.4443 21.0523 19.9966 21.5 19.4443 21.5L15.1106 21.5C14.5583 21.5 14.1106 21.0523 14.1106 20.5L14.1106 18.111C14.1106 16.9451 13.1655 16 11.9996 16C10.8337 16 9.88854 16.9451 9.88854 18.111L9.88854 20.5C9.88854 21.0523 9.44083 21.5 8.88854 21.5L4.55545 21.5C4.00317 21.5 3.55545 21.0523 3.55545 20.5L3.55545 10.7557C3.55545 9.84944 3.96511 8.99176 4.67002 8.42221L10.1142 4.02335C11.214 3.13469 12.7851 3.13466 13.885 4.02328Z" stroke="#1E1E1E" stroke-width="1.52" stroke-linecap="round" stroke-linejoin="round"/>
</svg>
