<svg width="320" height="320" viewBox="0 0 320 320" fill="none" xmlns="http://www.w3.org/2000/svg">
<g clip-path="url(#clip0_468_1697)">
<path fill-rule="evenodd" clip-rule="evenodd" d="M266.036 124.31L285.386 110.836L256.557 105.054C224.954 52.5711 160.165 31.5032 107.711 58.1532C52.671 86.1174 32.0562 156.032 61.6666 214.313C91.2771 272.593 159.9 297.169 214.94 269.205C266.474 243.022 287.829 180.062 266.036 124.31Z" fill="#5881F3"/>
<path d="M143.765 152.502C160.879 202.157 224.95 198.779 254.847 190.882" stroke="white" stroke-width="16.0259" stroke-linecap="square"/>
<path d="M160.672 109.732C161.578 107.959 162.599 106.17 163.734 104.364C164.917 102.514 166.164 100.736 167.476 99.0294C168.79 97.2773 170.168 95.6193 171.609 94.0554C173.052 92.4461 174.488 90.9955 175.915 89.7035L181.3 93.7888C178.325 96.9575 175.908 100.336 174.048 103.924L180.351 110.099L170.423 119.215L160.672 109.732ZM196.123 111.499C197.029 109.727 198.05 107.937 199.185 106.131C200.368 104.281 201.615 102.503 202.927 100.797C204.241 99.0446 205.619 97.3866 207.06 95.8227C208.503 94.2134 209.939 92.7628 211.366 91.4708L216.752 95.5561C213.777 98.7247 211.359 102.103 209.499 105.691L215.802 111.867L205.874 120.982L196.123 111.499Z" fill="#F9F4E3"/>
</g>
<defs>
<clipPath id="clip0_468_1697">
<rect width="320" height="320" fill="white"/>
</clipPath>
</defs>
</svg>
