<svg width="80" height="80" viewBox="0 0 80 80" fill="none" xmlns="http://www.w3.org/2000/svg">
<g clip-path="url(#clip0_468_1791)">
<path fill-rule="evenodd" clip-rule="evenodd" d="M66.5089 31.0774L71.3466 27.709L64.1392 26.2634C56.2385 13.1428 40.0412 7.87577 26.9278 14.5383C13.1678 21.5293 8.01406 39.0081 15.4167 53.5781C22.8193 68.1482 39.975 74.2922 53.735 67.3012C66.6186 60.7554 71.9573 45.0155 66.5089 31.0774Z" fill="#5881F3"/>
<path d="M35.9412 38.1255C40.2196 50.5392 56.2375 49.6945 63.7116 47.7205" stroke="white" stroke-width="4.00648" stroke-linecap="square"/>
<path d="M40.4053 27.695C40.6319 27.2519 40.887 26.8046 41.1708 26.353C41.4665 25.8906 41.7783 25.4461 42.1063 25.0194C42.4349 24.5814 42.7793 24.1669 43.1396 23.7759C43.5004 23.3736 43.8593 23.011 44.2162 22.688L45.5625 23.7093C44.8187 24.5015 44.2143 25.346 43.7493 26.243L45.3251 27.7869L42.843 30.0657L40.4053 27.695ZM49.2681 28.1368C49.4947 27.6937 49.7499 27.2464 50.0337 26.7948C50.3293 26.3324 50.6412 25.8879 50.9691 25.4612C51.2977 25.0232 51.6421 24.6087 52.0024 24.2177C52.3632 23.8154 52.7221 23.4528 53.079 23.1298L54.4253 24.1511C53.6815 24.9433 53.0771 25.7878 52.6121 26.6848L54.188 28.2287L51.7059 30.5075L49.2681 28.1368Z" fill="#F9F4E3"/>
</g>
<defs>
<clipPath id="clip0_468_1791">
<rect width="80" height="80" fill="white"/>
</clipPath>
</defs>
</svg>
