<svg width="375" height="555" viewBox="0 0 375 555" fill="none" xmlns="http://www.w3.org/2000/svg">
<g clip-path="url(#clip0_45_2203)">
<path opacity="0.3" fill-rule="evenodd" clip-rule="evenodd" d="M279.022 36.7157L269.331 7.98192L299.64 28.5732C506.935 -49.211 716.616 -5.84288 783.717 135.521C856.304 288.443 734.555 498.133 511.782 603.876C289.01 709.618 49.5732 671.372 -23.0139 518.45C-95.6011 365.527 26.1483 155.838 248.921 50.0951C258.927 45.3457 268.966 40.8868 279.022 36.7157Z" fill="#5881F3"/>
<path fill-rule="evenodd" clip-rule="evenodd" d="M170.719 19.7847L178.408 1.07789L188.4 23.6835C192.904 24.7419 197.414 25.8515 201.927 27.0127C440.744 88.4585 600.15 271.166 557.971 435.102C515.791 599.038 287.999 682.123 49.1818 620.678C-189.635 559.232 -349.042 376.524 -306.862 212.588C-266.525 55.8104 -56.4303 -27.0226 170.719 19.7847Z" fill="#5881F3"/>
</g>
<defs>
<clipPath id="clip0_45_2203">
<rect width="375" height="587" fill="white"/>
</clipPath>
</defs>
</svg>