<svg width="22" height="18" viewBox="0 0 22 18" fill="none" xmlns="http://www.w3.org/2000/svg">
<path d="M10.6723 13L6.03234 17.92L0.272344 12.64C0.725677 11.5733 1.24568 10.4933 1.83234 9.4C2.44568 8.28 3.09901 7.2 3.79234 6.16C4.48568 5.09333 5.21901 4.08 5.99234 3.12C6.76568 2.13333 7.53901 1.24 8.31234 0.439999L11.4323 2.68C9.85901 4.6 8.59234 6.65333 7.63234 8.84L10.6723 11.68C11.1257 10.6933 11.6457 9.69333 12.2323 8.68C12.819 7.64 13.4323 6.64 14.0723 5.68C14.739 4.72 15.4323 3.8 16.1523 2.92C16.8723 2.01333 17.5923 1.18667 18.3123 0.439999L21.4323 2.68C19.859 4.6 18.5923 6.65333 17.6323 8.84L21.3523 12.28L16.0323 17.92L10.6723 13Z" fill="#F9F4E3"/>
</svg>
