<svg width="22" height="18" viewBox="0 0 22 18" fill="none" xmlns="http://www.w3.org/2000/svg">
<path d="M10.5923 15.68C12.1923 13.7333 13.4457 11.68 14.3523 9.52L11.3123 6.76C10.379 8.76 9.23234 10.7467 7.87234 12.72C6.53901 14.6933 5.15234 16.44 3.71234 17.96L0.592344 15.68C2.19234 13.7333 3.44568 11.68 4.35234 9.52L0.632344 6.12L5.99234 0.479999L11.3523 5.36L15.9923 0.479999L21.7523 5.72C21.299 6.81333 20.7657 7.90667 20.1523 9C19.5657 10.0933 18.9257 11.1733 18.2323 12.24C17.539 13.28 16.8057 14.2933 16.0323 15.28C15.259 16.24 14.4857 17.1333 13.7123 17.96L10.5923 15.68Z" fill="#F9F4E3"/>
</svg>
