<svg width="44" height="44" viewBox="0 0 44 44" fill="none" xmlns="http://www.w3.org/2000/svg">
<g clip-path="url(#clip0_522_3521)">
<path d="M44 22.0048C44 34.1578 34.1481 44 21.9952 44C9.84223 44 0 34.1578 0 22.0048C0 9.8519 9.8519 0 22.0048 0C34.1578 0 44.0097 9.8519 44.0097 22.0048" fill="white"/>
<path fill-rule="evenodd" clip-rule="evenodd" d="M31.2694 13.6509C29.0681 11.4497 25.4992 11.4497 23.2979 13.6509L20.8084 16.1404C20.4976 16.4512 20.4976 16.9551 20.8084 17.2659C21.1192 17.5766 21.6231 17.5766 21.9339 17.2659L24.4233 14.7764C26.0031 13.1967 28.5643 13.1967 30.144 14.7764C31.7237 16.3561 31.7237 18.9173 30.144 20.497L27.0321 23.6089C25.4524 25.1886 22.8912 25.1886 21.3115 23.6089C20.9435 23.2409 20.6622 22.8212 20.4662 22.374C20.2898 21.9715 19.8205 21.7882 19.4179 21.9646C19.0154 22.1411 18.8321 22.6104 19.0085 23.013C19.2827 23.6387 19.6757 24.224 20.186 24.7343C22.3873 26.9356 25.9563 26.9356 28.1576 24.7343L31.2694 21.6225C33.4707 19.4212 33.4707 15.8522 31.2694 13.6509ZM13.6511 31.2694C15.8524 33.4706 19.4213 33.4706 21.6226 31.2694L24.1121 28.7799C24.4229 28.4691 24.4229 27.9652 24.1121 27.6544C23.8013 27.3436 23.2974 27.3436 22.9867 27.6544L20.4972 30.1439C18.9175 31.7236 16.3563 31.7236 14.7765 30.1439C13.1968 28.5642 13.1968 26.003 14.7765 24.4233L17.8884 21.3114C19.4681 19.7317 22.0293 19.7317 23.609 21.3114C24.027 21.7293 24.3332 22.2142 24.5297 22.7306C24.6859 23.1414 25.1456 23.3477 25.5564 23.1915C25.9672 23.0352 26.1736 22.5755 26.0173 22.1647C25.7426 21.4424 25.3144 20.7659 24.7345 20.186C22.5332 17.9847 18.9642 17.9847 16.7629 20.186L13.6511 23.2978C11.4498 25.4991 11.4498 29.0681 13.6511 31.2694Z" fill="#606060"/>
</g>
<defs>
<clipPath id="clip0_522_3521">
<rect width="44" height="44" fill="white"/>
</clipPath>
</defs>
</svg>
