<svg width="44" height="44" viewBox="0 0 44 44" fill="none" xmlns="http://www.w3.org/2000/svg">
<g clip-path="url(#clip0_522_3516)">
<path d="M44 22.0048C44 34.1578 34.1481 44 21.9952 44C9.84223 44 0 34.1578 0 22.0048C0 9.8519 9.8519 0 22.0048 0C34.1578 0 44.0097 9.8519 44.0097 22.0048" fill="#FFDA00"/>
<path d="M22.0521 10C14.8493 10 9 14.6117 9 20.3063C9 23.9706 11.4171 27.1804 15.0523 29.0077L13.8244 33.6001C13.7761 33.7354 13.8148 33.8805 13.9114 33.9868C13.9888 34.0642 14.0758 34.0932 14.1725 34.0932C14.2498 34.0932 14.3368 34.0642 14.4045 34.0158L19.693 30.4483C20.4568 30.5546 21.2399 30.6126 22.0424 30.6126C29.2452 30.6126 35.0945 26.0009 35.0945 20.3063C35.0945 14.6117 29.2549 10 22.0424 10H22.0521ZM15.4584 23.0424C15.4584 23.4485 15.2167 23.6998 14.8299 23.6998C14.4432 23.6998 14.2015 23.4485 14.2015 23.0424V18.508H12.8866C12.4709 18.508 12.3259 18.1986 12.3259 17.9376C12.3259 17.6572 12.5192 17.3672 12.8866 17.3672H16.7636C17.131 17.3672 17.3243 17.6572 17.3243 17.9376C17.3243 18.218 17.1793 18.508 16.7636 18.508H15.4487V23.0424H15.4584ZM21.501 23.6902C21.1916 23.6902 20.9886 23.5452 20.8919 23.2551L20.6212 22.4043H18.0108L17.7304 23.2454C17.6337 23.5452 17.4403 23.6902 17.131 23.6902C16.7829 23.6902 16.5122 23.4388 16.5122 23.1101C16.5122 22.9844 16.5509 22.8877 16.5702 22.8394L18.3782 18.0439C18.5038 17.6959 18.8229 17.3188 19.3063 17.3188C19.7317 17.3188 20.0701 17.5799 20.2345 18.0439L21.9941 22.8394C22.0521 22.9941 22.0617 23.1101 22.0617 23.1584C22.0617 23.4581 21.8104 23.6998 21.4913 23.6998L21.501 23.6902ZM26.2964 23.0714C26.2964 23.3325 26.0741 23.6128 25.697 23.6128H23.367C22.9609 23.6128 22.7095 23.3518 22.7095 22.9264V17.9569C22.7095 17.5509 22.9512 17.3092 23.3379 17.3092C23.7247 17.3092 23.9664 17.5605 23.9664 17.9569V22.4817H25.697C25.8807 22.4817 26.0354 22.5397 26.1417 22.6557C26.2481 22.762 26.2964 22.9167 26.2868 23.0714H26.2964ZM31.4979 23.1971C31.4496 23.6515 31.0048 23.6902 30.8791 23.6902C30.8501 23.6902 30.8115 23.6902 30.7825 23.6902C30.5504 23.6708 30.4247 23.5258 30.183 23.1971L28.5394 20.9637L28.0947 21.4181V23.1004C28.0947 23.4388 27.824 23.6998 27.4663 23.6998C27.0892 23.6998 26.8378 23.4581 26.8378 23.1004V17.9376C26.8378 17.5799 27.0989 17.3188 27.4663 17.3188C27.8337 17.3188 28.0947 17.5702 28.0947 17.9376V19.9389L30.2894 17.6476C30.3861 17.5509 30.5504 17.4155 30.7825 17.4155C31.0822 17.4155 31.3916 17.6282 31.3819 17.9956C31.3819 18.1696 31.2755 18.276 31.0725 18.508C31.0242 18.5564 30.9758 18.6144 30.9178 18.682L29.4192 20.2L31.1982 22.53C31.3819 22.7717 31.5366 22.9651 31.4979 23.2261V23.1971Z" fill="#1C1C1B"/>
<path d="M21.9378 21.0043L21 23.8467H22.9046L21.9668 21.0043C21.9668 21.0043 21.9475 20.9946 21.9378 21.0043Z" fill="#1C1C1B"/>
</g>
<defs>
<clipPath id="clip0_522_3516">
<rect width="44" height="44" fill="white"/>
</clipPath>
</defs>
</svg>
