<svg width="44" height="44" viewBox="0 0 44 44" fill="none" xmlns="http://www.w3.org/2000/svg">
<g filter="url(#filter0_d_127_3201)">
<rect x="4" y="3" width="32" height="32" rx="16" fill="#5881F3" shape-rendering="crispEdges"/>
<rect x="5" y="4" width="30" height="30" rx="15" stroke="#F9F4E3" stroke-width="2" stroke-linecap="round" shape-rendering="crispEdges"/>
<circle cx="16" cy="13.75" r="1.75" fill="#F9F4E3"/>
<circle cx="24" cy="13.75" r="1.75" fill="#F9F4E3"/>
<path d="M28 19.5C27.5648 20.4827 26.927 21.3756 26.1229 22.1277C25.3189 22.8798 24.3643 23.4764 23.3137 23.8835C22.2631 24.2905 21.1371 24.5 20 24.5C18.8629 24.5 17.7369 24.2905 16.6863 23.8835C15.6357 23.4764 14.6811 22.8798 13.8771 22.1277C13.073 21.3756 12.4352 20.4827 12 19.5" stroke="#F9F4E3" stroke-width="2.5" stroke-linecap="round"/>
</g>
<defs>
<filter id="filter0_d_127_3201" x="0" y="0" width="44" height="44" filterUnits="userSpaceOnUse" color-interpolation-filters="sRGB">
<feFlood flood-opacity="0" result="BackgroundImageFix"/>
<feColorMatrix in="SourceAlpha" type="matrix" values="0 0 0 0 0 0 0 0 0 0 0 0 0 0 0 0 0 0 127 0" result="hardAlpha"/>
<feOffset dx="2" dy="3"/>
<feGaussianBlur stdDeviation="3"/>
<feComposite in2="hardAlpha" operator="out"/>
<feColorMatrix type="matrix" values="0 0 0 0 0 0 0 0 0 0 0 0 0 0 0 0 0 0 0.25 0"/>
<feBlend mode="normal" in2="BackgroundImageFix" result="effect1_dropShadow_127_3201"/>
<feBlend mode="normal" in="SourceGraphic" in2="effect1_dropShadow_127_3201" result="shape"/>
</filter>
</defs>
</svg>
