<svg width="59" height="59" viewBox="0 0 59 59" fill="none" xmlns="http://www.w3.org/2000/svg">
<g clip-path="url(#clip0_622_906)">
<path fill-rule="evenodd" clip-rule="evenodd" d="M48.9849 22.8285L52.5386 20.3542L47.2442 19.2923C41.4406 9.6543 29.5426 5.78537 19.9099 10.6794C9.80226 15.8148 6.01652 28.6541 11.4542 39.3569C16.892 50.0596 29.494 54.5727 39.6017 49.4373C49.0655 44.629 52.9872 33.067 48.9849 22.8285Z" fill="#E8E8E8"/>
<path d="M52.5386 20.3542L52.6861 19.6188C52.9807 19.6779 53.2116 19.9072 53.2728 20.2014C53.3341 20.4956 53.2137 20.7979 52.9671 20.9697L52.5386 20.3542ZM48.9849 22.8285L48.2864 23.1016C48.1602 22.7786 48.2718 22.4112 48.5564 22.213L48.9849 22.8285ZM47.2442 19.2923L47.0967 20.0276C46.8901 19.9862 46.7104 19.8597 46.6017 19.6792L47.2442 19.2923ZM19.9099 10.6794L20.2497 11.3481L19.9099 10.6794ZM11.4542 39.3569L10.7856 39.6966L11.4542 39.3569ZM39.6017 49.4373L39.2619 48.7687L39.6017 49.4373ZM52.9671 20.9697L49.4135 23.444L48.5564 22.213L52.11 19.7387L52.9671 20.9697ZM47.3917 18.5569L52.6861 19.6188L52.3911 21.0895L47.0967 20.0276L47.3917 18.5569ZM46.6017 19.6792C40.9805 10.3441 29.4973 6.64963 20.2497 11.3481L19.5702 10.0108C29.5879 4.92111 41.9008 8.96454 47.8867 18.9054L46.6017 19.6792ZM20.2497 11.3481C10.5468 16.2778 6.85422 28.6472 12.1229 39.0171L10.7856 39.6966C5.17882 28.6611 9.05774 15.3518 19.5702 10.0108L20.2497 11.3481ZM12.1229 39.0171C17.3916 49.3871 29.5591 53.6984 39.2619 48.7687L39.9414 50.106C29.4289 55.4471 16.3924 50.732 10.7856 39.6966L12.1229 39.0171ZM39.2619 48.7687C48.3478 44.1524 52.1624 33.0172 48.2864 23.1016L49.6835 22.5555C53.8119 33.1168 49.7833 45.1056 39.9414 50.106L39.2619 48.7687Z" fill="#939393"/>
<path d="M36.0753 19.7314C36.3693 19.5141 36.6836 19.3035 37.018 19.0994C37.3638 18.8921 37.7143 18.7018 38.0697 18.5286C38.4291 18.3481 38.7912 18.1882 39.1561 18.049C39.5251 17.9025 39.8798 17.7815 40.2202 17.6859L40.7713 18.7982C40.0229 19.0757 39.349 19.4333 38.7496 19.8709L39.2806 21.402L36.9025 22.0883L36.0753 19.7314Z" fill="#939393"/>
<path d="M29.5925 19.6976C29.8538 19.442 30.136 19.1901 30.4392 18.9419C30.7531 18.689 31.0742 18.4523 31.4023 18.2318C31.7334 18.0035 32.0701 17.7953 32.4124 17.6072C32.7577 17.4113 33.0923 17.2426 33.4163 17.1011L34.1153 18.1269C33.4122 18.5048 32.794 18.9517 32.2606 19.4677L32.9973 20.9112L30.7363 21.9182L29.5925 19.6976Z" fill="#939393"/>
</g>
<defs>
<clipPath id="clip0_622_906">
<rect width="58.7654" height="58.7654" fill="white" transform="translate(0.129639)"/>
</clipPath>
</defs>
</svg>
