<svg width="24" height="15" viewBox="0 0 24 15" fill="none" xmlns="http://www.w3.org/2000/svg">
<path d="M4.38082 5.275C4.35082 5.655 4.31582 6.03 4.27582 6.4C4.24582 6.77 4.21582 7.12 4.18582 7.45C4.15582 7.78 4.13082 8.075 4.11082 8.335C4.10082 8.595 4.09582 8.795 4.09582 8.935C4.09582 9.195 4.12582 9.37 4.18582 9.46C4.24582 9.54 4.34582 9.58 4.48582 9.58C4.59582 9.58 4.69082 9.56 4.77082 9.52C4.85082 9.48 4.92582 9.435 4.99582 9.385C5.06582 9.335 5.12582 9.29 5.17582 9.25C5.23582 9.21 5.30082 9.19 5.37082 9.19C5.44082 9.19 5.50582 9.23 5.56582 9.31C5.62582 9.39 5.65582 9.575 5.65582 9.865C5.65582 10.415 5.50582 10.85 5.20582 11.17C4.90582 11.49 4.39082 11.65 3.66082 11.65C2.94082 11.65 2.40582 11.485 2.05582 11.155C1.71582 10.815 1.54582 10.3 1.54582 9.61C1.54582 9.46 1.55082 9.285 1.56082 9.085C1.58082 8.875 1.60582 8.605 1.63582 8.275C1.66582 7.945 1.70082 7.54 1.74082 7.06C1.79082 6.58 1.84082 5.985 1.89082 5.275H1.09582C1.01582 5.275 0.96582 5.26 0.94582 5.23C0.93582 5.19 0.93082 5.135 0.93082 5.065L0.97582 4.3C0.98582 4.17 1.00082 4.045 1.02082 3.925C1.05082 3.795 1.10082 3.68 1.17082 3.58C1.25082 3.48 1.36082 3.4 1.50082 3.34C1.64082 3.28 1.82582 3.25 2.05582 3.25C2.12582 3.07 2.20582 2.855 2.29582 2.605C2.38582 2.355 2.47582 2.115 2.56582 1.885C2.65582 1.645 2.74082 1.445 2.82082 1.285C2.91082 1.125 2.99082 1.045 3.06082 1.045H3.49582C3.91582 1.045 4.20582 1.175 4.36582 1.435C4.52582 1.695 4.60582 2.005 4.60582 2.365C4.60582 2.565 4.59082 2.86 4.56082 3.25H6.13582C6.29582 3.25 6.37582 3.32 6.37582 3.46L6.31582 4.27C6.29582 4.57 6.21082 4.815 6.06082 5.005C5.92082 5.185 5.62582 5.275 5.17582 5.275H4.38082ZM8.39203 11.5C8.08203 11.5 7.82703 11.47 7.62703 11.41C7.43703 11.34 7.28203 11.245 7.16203 11.125C7.05203 11.005 6.97203 10.86 6.92203 10.69C6.88203 10.51 6.86203 10.305 6.86203 10.075C6.86203 9.925 6.86703 9.715 6.87703 9.445C6.89703 9.165 6.92703 8.785 6.96703 8.305C7.00703 7.815 7.05203 7.2 7.10203 6.46C7.16203 5.71 7.23203 4.785 7.31203 3.685C7.32203 3.465 7.34703 3.335 7.38703 3.295C7.41703 3.265 7.49703 3.25 7.62703 3.25H8.21203C8.52203 3.25 8.77203 3.28 8.96203 3.34C9.16203 3.4 9.31703 3.49 9.42703 3.61C9.54703 3.73 9.62703 3.875 9.66703 4.045C9.71703 4.215 9.74203 4.405 9.74203 4.615C9.74203 4.765 9.73203 4.99 9.71203 5.29C9.69203 5.59 9.66203 6 9.62203 6.52C9.59203 7.03 9.54703 7.67 9.48703 8.44C9.42703 9.2 9.35203 10.12 9.26203 11.2C9.25203 11.32 9.22703 11.4 9.18703 11.44C9.14703 11.48 9.06203 11.5 8.93203 11.5H8.39203ZM7.32703 1.48C7.32703 1.08 7.47203 0.765 7.76203 0.535C8.05203 0.305 8.44203 0.19 8.93203 0.19C9.36203 0.19 9.67203 0.28 9.86203 0.459999C10.062 0.629999 10.162 0.859999 10.162 1.15C10.162 1.52 10.022 1.83 9.74203 2.08C9.47203 2.32 9.07203 2.44 8.54203 2.44C7.73203 2.44 7.32703 2.12 7.32703 1.48ZM15.9558 3.1C16.8958 3.1 17.6008 3.39 18.0708 3.97C18.5508 4.55 18.7908 5.465 18.7908 6.715C18.7908 7.495 18.7008 8.19 18.5208 8.8C18.3408 9.41 18.0908 9.93 17.7708 10.36C17.4508 10.78 17.0758 11.1 16.6458 11.32C16.2158 11.54 15.7508 11.65 15.2508 11.65C14.7208 11.65 14.3058 11.535 14.0058 11.305C13.7058 11.075 13.4708 10.75 13.3008 10.33C13.2708 10.69 13.2458 10.965 13.2258 11.155C13.2058 11.345 13.1908 11.495 13.1808 11.605C13.1708 11.725 13.1608 11.83 13.1508 11.92C13.1508 12.01 13.1408 12.13 13.1208 12.28C13.1108 12.43 13.0958 12.635 13.0758 12.895C13.0558 13.155 13.0258 13.515 12.9858 13.975C12.9758 14.095 12.9508 14.175 12.9108 14.215C12.8708 14.255 12.7858 14.275 12.6558 14.275H12.1158C11.8058 14.275 11.5508 14.24 11.3508 14.17C11.1608 14.11 11.0058 14.02 10.8858 13.9C10.7758 13.78 10.6958 13.63 10.6458 13.45C10.6058 13.28 10.5858 13.08 10.5858 12.85C10.5858 12.75 10.6008 12.48 10.6308 12.04C10.6608 11.6 10.6958 11.075 10.7358 10.465C10.7858 9.845 10.8358 9.18 10.8858 8.47C10.9458 7.76 11.0008 7.085 11.0508 6.445C11.1008 5.795 11.1408 5.22 11.1708 4.72C11.2108 4.22 11.2408 3.875 11.2608 3.685C11.2708 3.465 11.2958 3.335 11.3358 3.295C11.3658 3.265 11.4458 3.25 11.5758 3.25H12.1608C12.7008 3.25 13.0908 3.365 13.3308 3.595C13.5808 3.815 13.7058 4.08 13.7058 4.39C13.9358 3.93 14.2308 3.6 14.5908 3.4C14.9608 3.2 15.4158 3.1 15.9558 3.1ZM14.8608 5.095C14.3508 5.095 13.9758 5.315 13.7358 5.755C13.4958 6.195 13.3758 6.795 13.3758 7.555C13.3758 7.815 13.3908 8.07 13.4208 8.32C13.4608 8.57 13.5258 8.795 13.6158 8.995C13.7058 9.195 13.8258 9.355 13.9758 9.475C14.1358 9.595 14.3358 9.655 14.5758 9.655C15.0058 9.655 15.3658 9.445 15.6558 9.025C15.9458 8.605 16.0908 7.945 16.0908 7.045C16.0908 6.795 16.0708 6.555 16.0308 6.325C16.0008 6.085 15.9408 5.875 15.8508 5.695C15.7608 5.515 15.6358 5.37 15.4758 5.26C15.3158 5.15 15.1108 5.095 14.8608 5.095ZM20.9404 8.83C21.3604 8.83 21.6604 8.935 21.8404 9.145C22.0204 9.345 22.1104 9.63 22.1104 10C22.1104 10.16 22.0904 10.335 22.0504 10.525C22.0104 10.715 21.9354 10.895 21.8254 11.065C21.7254 11.225 21.5754 11.365 21.3754 11.485C21.1854 11.595 20.9354 11.65 20.6254 11.65C20.1754 11.65 19.8704 11.535 19.7104 11.305C19.5504 11.065 19.4704 10.77 19.4704 10.42C19.4704 10.22 19.4954 10.025 19.5454 9.835C19.5954 9.645 19.6754 9.475 19.7854 9.325C19.8954 9.175 20.0454 9.055 20.2354 8.965C20.4254 8.875 20.6604 8.83 20.9404 8.83ZM21.2704 7.78C21.0204 7.78 20.8154 7.75 20.6554 7.69C20.4954 7.63 20.3704 7.54 20.2804 7.42C20.1904 7.29 20.1254 7.135 20.0854 6.955C20.0554 6.765 20.0404 6.55 20.0404 6.31C20.0404 6.22 20.0404 6.125 20.0404 6.025C20.0504 5.915 20.0604 5.78 20.0704 5.62C20.0904 5.46 20.1054 5.26 20.1154 5.02C20.1354 4.78 20.1604 4.475 20.1904 4.105C20.2204 3.725 20.2554 3.27 20.2954 2.74C20.3354 2.21 20.3804 1.575 20.4304 0.835C20.4404 0.614999 20.4654 0.484999 20.5054 0.444999C20.5354 0.415 20.6154 0.4 20.7454 0.4H21.6304C22.1804 0.4 22.5704 0.51 22.8004 0.729999C23.0404 0.939999 23.1604 1.19 23.1604 1.48C23.1604 1.66 23.1404 1.9 23.1004 2.2C23.0704 2.49 23.0254 2.815 22.9654 3.175C22.9054 3.535 22.8354 3.915 22.7554 4.315C22.6854 4.705 22.6104 5.095 22.5304 5.485C22.4604 5.865 22.3904 6.23 22.3204 6.58C22.2504 6.93 22.1904 7.23 22.1404 7.48C22.1204 7.6 22.0854 7.68 22.0354 7.72C21.9954 7.76 21.9204 7.78 21.8104 7.78H21.2704Z" fill="#5881F3"/>
</svg>
